<svg width="100" height="100" viewBox="0 0 100 100" fill="none" xmlns="http://www.w3.org/2000/svg">
<path d="M50 0C77.6141 0 100 22.3859 100 50C100 77.6141 77.6141 100 50 100C22.3859 100 -3.72529e-07 77.6141 -3.72529e-07 50C-3.72529e-07 22.3859 22.3859 0 50 0ZM33.9671 74.0471C32.4941 75.5153 32.4918 77.8988 33.96 79.3718C34.6965 80.1082 35.6612 80.4776 36.6259 80.4776C37.5882 80.4776 38.5482 80.1106 39.2847 79.3788L66.0329 52.7059C66.7412 52 67.1388 51.0424 67.1388 50.0424C67.1388 49.0424 66.7435 48.0847 66.0353 47.3765L39.2847 20.6259C37.8141 19.1553 35.4306 19.1553 33.96 20.6259C32.4894 22.0965 32.4894 24.48 33.96 25.9506L58.0471 50.0353L33.9671 74.0471Z" fill="url(#paint0_linear_366_622)"/>
<path d="M33.4297 79.9021L33.4288 79.9012C31.6685 78.1353 31.6709 75.2769 33.4376 73.5159L56.9856 50.0346L33.4297 26.4809L33.96 25.9506L33.4297 26.4809C31.6662 24.7174 31.6662 21.859 33.4297 20.0956C35.1931 18.3321 38.0516 18.3321 39.815 20.0956L66.5656 46.8461C67.4149 47.6954 67.8888 48.844 67.8888 50.0424C67.8888 51.2417 67.4118 52.3905 66.5624 53.2371L39.8143 79.9099L39.8133 79.9109C38.9316 80.7869 37.7795 81.2276 36.6259 81.2276C35.4696 81.2276 34.3119 80.7843 33.4297 79.9021ZM99.25 50C99.25 22.8001 77.1999 0.75 50 0.75C22.8001 0.75 0.75 22.8001 0.75 50C0.75 77.1999 22.8001 99.25 50 99.25C77.1999 99.25 99.25 77.1999 99.25 50Z" stroke="url(#paint1_linear_366_622)" stroke-opacity="0.15" stroke-width="1.5"/>
<defs>
<linearGradient id="paint0_linear_366_622" x1="50" y1="0" x2="50" y2="100" gradientUnits="userSpaceOnUse">
<stop stop-color="white" stop-opacity="0.6"/>
<stop offset="1" stop-color="white" stop-opacity="0.2"/>
</linearGradient>
<linearGradient id="paint1_linear_366_622" x1="50" y1="0" x2="50" y2="100" gradientUnits="userSpaceOnUse">
<stop stop-color="white" stop-opacity="0.2"/>
<stop offset="1" stop-color="white" stop-opacity="0.6"/>
</linearGradient>
</defs>
</svg>
