<svg width="100" height="100" viewBox="0 0 100 100" fill="none" xmlns="http://www.w3.org/2000/svg">
<path d="M50 0C22.3859 0 0 22.3859 0 50C0 77.6141 22.3859 100 50 100C77.6141 100 100 77.6141 100 50C100 22.3859 77.6141 0 50 0ZM66.0329 74.0471C67.5059 75.5153 67.5082 77.8988 66.04 79.3718C65.3035 80.1082 64.3388 80.4776 63.3741 80.4776C62.4118 80.4776 61.4518 80.1106 60.7153 79.3788L33.9671 52.7059C33.2588 52 32.8612 51.0424 32.8612 50.0424C32.8612 49.0424 33.2565 48.0847 33.9647 47.3765L60.7153 20.6259C62.1859 19.1553 64.5694 19.1553 66.04 20.6259C67.5106 22.0965 67.5106 24.48 66.04 25.9506L41.9529 50.0353L66.0329 74.0471Z" fill="url(#paint0_linear_366_628)"/>
<path d="M66.5703 79.9021L66.5712 79.9012C68.3315 78.1353 68.3291 75.2769 66.5624 73.5159L43.0144 50.0346L66.5703 26.4809L66.04 25.9506L66.5703 26.4809C68.3338 24.7174 68.3338 21.859 66.5703 20.0956C64.8069 18.3321 61.9484 18.3321 60.185 20.0956L33.4344 46.8461C32.5851 47.6954 32.1112 48.844 32.1112 50.0424C32.1112 51.2417 32.5882 52.3905 33.4376 53.2371L60.1857 79.9099L60.1867 79.9109C61.0684 80.7869 62.2205 81.2276 63.3741 81.2276C64.5304 81.2276 65.6881 80.7843 66.5703 79.9021ZM0.75 50C0.75 22.8001 22.8001 0.75 50 0.75C77.1999 0.75 99.25 22.8001 99.25 50C99.25 77.1999 77.1999 99.25 50 99.25C22.8001 99.25 0.75 77.1999 0.75 50Z" stroke="url(#paint1_linear_366_628)" stroke-opacity="0.15" stroke-width="1.5"/>
<defs>
<linearGradient id="paint0_linear_366_628" x1="50" y1="0" x2="50" y2="100" gradientUnits="userSpaceOnUse">
<stop stop-color="white" stop-opacity="0.6"/>
<stop offset="1" stop-color="white" stop-opacity="0.2"/>
</linearGradient>
<linearGradient id="paint1_linear_366_628" x1="50" y1="0" x2="50" y2="100" gradientUnits="userSpaceOnUse">
<stop stop-color="white" stop-opacity="0.2"/>
<stop offset="1" stop-color="white" stop-opacity="0.6"/>
</linearGradient>
</defs>
</svg>
