<svg width="148" height="200" viewBox="0 0 148 200" fill="none" xmlns="http://www.w3.org/2000/svg">
<path d="M80.5429 11.0107V10.1429H88.2893V11.0107L86.5214 11.1714C86.1786 11.2143 85.975 11.3 85.9107 11.4286C85.8464 11.5571 85.8143 11.9964 85.8143 12.7464V29.3964C85.8143 30.1464 85.8464 30.5857 85.9107 30.7143C85.975 30.8429 86.1786 30.9286 86.5214 30.9714L88.2893 31.1643V32H80.5429V31.1643L82.3107 30.9714C82.6536 30.9286 82.8571 30.8429 82.9214 30.7143C82.9857 30.5857 83.0179 30.1464 83.0179 29.3964V12.7464C83.0179 11.9964 82.9857 11.5571 82.9214 11.4286C82.8571 11.3 82.6536 11.2143 82.3107 11.1714L80.5429 11.0107ZM93.9437 32.3214C93.408 32.3214 92.9687 32.15 92.6258 31.8071C92.3044 31.4643 92.1437 31.025 92.1437 30.4893C92.1437 29.9536 92.3044 29.525 92.6258 29.2036C92.9687 28.8607 93.408 28.6893 93.9437 28.6893C94.5008 28.6893 94.9508 28.8607 95.2937 29.2036C95.6365 29.525 95.808 29.9536 95.808 30.4893C95.808 31.025 95.6365 31.4643 95.2937 31.8071C94.9508 32.15 94.5008 32.3214 93.9437 32.3214ZM99.6591 11.0107V10.1429H108.788C111.402 10.1429 113.405 10.9893 114.798 12.6821C116.191 14.375 116.888 16.7643 116.888 19.85V22.2607C116.888 25.3679 116.191 27.7679 114.798 29.4607C113.405 31.1536 111.402 32 108.788 32H99.6591V31.1643L101.427 30.9714C101.77 30.9286 101.973 30.8429 102.038 30.7143C102.102 30.5857 102.134 30.1464 102.134 29.3964V12.7464C102.134 11.9964 102.102 11.5571 102.038 11.4286C101.973 11.3 101.77 11.2143 101.427 11.1714L99.6591 11.0107ZM108.723 11.1714H104.93V30.9714H108.723C109.88 30.9714 110.834 30.7571 111.584 30.3286C112.334 29.9 112.891 29.1714 113.255 28.1429C113.641 27.0929 113.834 25.6679 113.834 23.8679V18.2429C113.834 16.4643 113.641 15.0607 113.255 14.0321C112.891 13.0036 112.334 12.275 111.584 11.8464C110.834 11.3964 109.88 11.1714 108.723 11.1714ZM121.504 32.3214C120.968 32.3214 120.529 32.15 120.186 31.8071C119.864 31.4643 119.704 31.025 119.704 30.4893C119.704 29.9536 119.864 29.525 120.186 29.2036C120.529 28.8607 120.968 28.6893 121.504 28.6893C122.061 28.6893 122.511 28.8607 122.854 29.2036C123.197 29.525 123.368 29.9536 123.368 30.4893C123.368 31.025 123.197 31.4643 122.854 31.8071C122.511 32.15 122.061 32.3214 121.504 32.3214Z" fill="white"/>
<path d="M66.5429 123.011V122.143H75.4786C77.5786 122.143 79.1857 122.646 80.3 123.654C81.4357 124.639 82.0036 125.957 82.0036 127.607V128.604C82.0036 129.911 81.6393 131.025 80.9107 131.946C80.2036 132.846 79.1857 133.468 77.8571 133.811L81.9714 141.396C82.25 141.911 82.4536 142.275 82.5821 142.489C82.7107 142.682 82.8286 142.811 82.9357 142.875C83.0643 142.918 83.2357 142.95 83.45 142.971L84.8964 143.164V144H80.0429L74.9643 134.1H71.8143V141.396C71.8143 142.146 71.8464 142.586 71.9107 142.714C71.975 142.843 72.1786 142.929 72.5214 142.971L74.2893 143.164V144H66.5429V143.164L68.3107 142.971C68.6536 142.929 68.8571 142.843 68.9214 142.714C68.9857 142.586 69.0179 142.146 69.0179 141.396V124.746C69.0179 123.996 68.9857 123.557 68.9214 123.429C68.8571 123.3 68.6536 123.214 68.3107 123.171L66.5429 123.011ZM75.4786 123.171H71.8143V133.071H75.4786C76.5929 133.071 77.4607 132.718 78.0821 132.011C78.725 131.282 79.0464 130.189 79.0464 128.732V127.479C79.0464 126.021 78.725 124.939 78.0821 124.232C77.4607 123.525 76.5929 123.171 75.4786 123.171ZM89.2036 144.321C88.6679 144.321 88.2286 144.15 87.8857 143.807C87.5643 143.464 87.4036 143.025 87.4036 142.489C87.4036 141.954 87.5643 141.525 87.8857 141.204C88.2286 140.861 88.6679 140.689 89.2036 140.689C89.7607 140.689 90.2107 140.861 90.5536 141.204C90.8964 141.525 91.0679 141.954 91.0679 142.489C91.0679 143.025 90.8964 143.464 90.5536 143.807C90.2107 144.15 89.7607 144.321 89.2036 144.321ZM94.919 123.011V122.143H102.665V123.011L100.898 123.171C100.555 123.214 100.351 123.3 100.287 123.429C100.223 123.557 100.19 123.996 100.19 124.746V141.396C100.19 142.146 100.223 142.586 100.287 142.714C100.351 142.843 100.555 142.929 100.898 142.971L102.665 143.164V144H94.919V143.164L96.6868 142.971C97.0297 142.929 97.2333 142.843 97.2975 142.714C97.3618 142.586 97.394 142.146 97.394 141.396V124.746C97.394 123.996 97.3618 123.557 97.2975 123.429C97.2333 123.3 97.0297 123.214 96.6868 123.171L94.919 123.011ZM108.32 144.321C107.784 144.321 107.345 144.15 107.002 143.807C106.68 143.464 106.52 143.025 106.52 142.489C106.52 141.954 106.68 141.525 107.002 141.204C107.345 140.861 107.784 140.689 108.32 140.689C108.877 140.689 109.327 140.861 109.67 141.204C110.013 141.525 110.184 141.954 110.184 142.489C110.184 143.025 110.013 143.464 109.67 143.807C109.327 144.15 108.877 144.321 108.32 144.321ZM114.035 123.011V122.143H123.164C125.778 122.143 127.782 122.989 129.174 124.682C130.567 126.375 131.264 128.764 131.264 131.85V134.261C131.264 137.368 130.567 139.768 129.174 141.461C127.782 143.154 125.778 144 123.164 144H114.035V143.164L115.803 142.971C116.146 142.929 116.349 142.843 116.414 142.714C116.478 142.586 116.51 142.146 116.51 141.396V124.746C116.51 123.996 116.478 123.557 116.414 123.429C116.349 123.3 116.146 123.214 115.803 123.171L114.035 123.011ZM123.099 123.171H119.307V142.971H123.099C124.257 142.971 125.21 142.757 125.96 142.329C126.71 141.9 127.267 141.171 127.632 140.143C128.017 139.093 128.21 137.668 128.21 135.868V130.243C128.21 128.464 128.017 127.061 127.632 126.032C127.267 125.004 126.71 124.275 125.96 123.846C125.21 123.396 124.257 123.171 123.099 123.171ZM135.88 144.321C135.344 144.321 134.905 144.15 134.562 143.807C134.24 143.464 134.08 143.025 134.08 142.489C134.08 141.954 134.24 141.525 134.562 141.204C134.905 140.861 135.344 140.689 135.88 140.689C136.437 140.689 136.887 140.861 137.23 141.204C137.573 141.525 137.744 141.954 137.744 142.489C137.744 143.025 137.573 143.464 137.23 143.807C136.887 144.15 136.437 144.321 135.88 144.321Z" fill="white"/>
<path d="M1.54286 176.011V175.143H10.6714C12.7929 175.143 14.4107 175.679 15.525 176.75C16.6393 177.8 17.1964 179.204 17.1964 180.961V181.893C17.1964 183.65 16.6393 185.064 15.525 186.136C14.4107 187.207 12.7929 187.743 10.6714 187.743H6.81429V194.396C6.81429 195.146 6.84643 195.596 6.91071 195.746C6.975 195.875 7.17857 195.95 7.52143 195.971L9.93214 196.164V197H1.54286V196.164L3.31071 195.971C3.65357 195.929 3.85714 195.843 3.92143 195.714C3.98571 195.586 4.01786 195.146 4.01786 194.396V177.746C4.01786 176.996 3.98571 176.557 3.92143 176.429C3.85714 176.3 3.65357 176.214 3.31071 176.171L1.54286 176.011ZM10.6714 176.171H6.81429V186.714H10.6714C13.05 186.714 14.2393 185.257 14.2393 182.343V180.511C14.2393 177.618 13.05 176.171 10.6714 176.171ZM32.511 197.225C30.8396 197.225 29.8538 196.454 29.5538 194.911C28.8038 195.768 27.9788 196.389 27.0789 196.775C26.1788 197.139 25.2896 197.321 24.411 197.321C22.911 197.321 21.8074 196.904 21.1003 196.068C20.3931 195.232 20.0396 194.225 20.0396 193.046C20.0396 191.782 20.4681 190.786 21.3253 190.057C22.2038 189.307 23.7146 188.932 25.8574 188.932H29.4896V186.329C29.4896 184.614 29.1896 183.436 28.5896 182.793C28.011 182.129 27.2181 181.796 26.211 181.796C25.5681 181.796 24.9896 181.925 24.4753 182.182C23.961 182.439 23.586 182.911 23.3503 183.596C23.136 184.261 23.1146 185.236 23.286 186.521L20.7467 186.136C20.6396 185.129 20.7681 184.229 21.1324 183.436C21.5181 182.621 22.1396 181.979 22.9967 181.507C23.8753 181.014 24.9681 180.768 26.2753 180.768C27.8396 180.768 29.0396 181.036 29.8753 181.571C30.711 182.086 31.2896 182.761 31.611 183.596C31.9539 184.432 32.1253 185.343 32.1253 186.329V193.561C32.1253 194.654 32.2431 195.339 32.4788 195.618C32.736 195.896 33.0146 196.036 33.3146 196.036C33.5074 196.036 33.711 195.993 33.9253 195.907C34.1396 195.8 34.3753 195.639 34.6324 195.425L35.211 196.229C34.8896 196.507 34.5039 196.743 34.0539 196.936C33.6253 197.129 33.111 197.225 32.511 197.225ZM25.311 195.971C25.911 195.971 26.5538 195.811 27.2396 195.489C27.9467 195.146 28.6967 194.471 29.4896 193.464V189.961H26.211C25.011 189.961 24.1324 190.207 23.5753 190.7C23.0396 191.171 22.7717 191.911 22.7717 192.918C22.7717 193.882 22.9753 194.632 23.3824 195.168C23.811 195.704 24.4538 195.971 25.311 195.971ZM43.4087 190.507L41.448 190.025C38.7694 189.339 37.4301 187.796 37.4301 185.396C37.4301 184.604 37.6122 183.854 37.9765 183.146C38.3408 182.439 38.9194 181.871 39.7122 181.443C40.5265 180.993 41.5658 180.768 42.8301 180.768C44.2444 180.768 45.3801 181.004 46.2372 181.475C47.0944 181.946 47.6944 182.557 48.0372 183.307C48.3801 184.057 48.4872 184.871 48.3587 185.75L45.8515 186.2C46.1087 184.807 45.9587 183.725 45.4015 182.954C44.8658 182.182 43.9765 181.796 42.7337 181.796C41.7694 181.796 40.998 182.043 40.4194 182.536C39.8408 183.007 39.5515 183.704 39.5515 184.625C39.5515 185.311 39.7658 185.921 40.1944 186.457C40.623 186.971 41.3408 187.357 42.348 187.614L44.373 188.096C45.7872 188.439 46.8801 188.986 47.6515 189.736C48.4444 190.486 48.8408 191.471 48.8408 192.693C48.8408 194.064 48.3372 195.179 47.3301 196.036C46.3444 196.893 44.9301 197.321 43.0872 197.321C42.2087 197.321 41.3515 197.193 40.5158 196.936C39.7015 196.657 38.9837 196.229 38.3622 195.65C37.7622 195.05 37.323 194.279 37.0444 193.336L38.8444 192.693C39.0801 194.043 39.5944 194.986 40.3872 195.521C41.1801 196.057 42.0908 196.325 43.1194 196.325C43.7194 196.325 44.2872 196.229 44.823 196.036C45.3801 195.843 45.8301 195.543 46.173 195.136C46.5158 194.707 46.6872 194.161 46.6872 193.496C46.6872 192.811 46.4515 192.221 45.9801 191.729C45.5087 191.236 44.6515 190.829 43.4087 190.507ZM58.6326 190.507L56.6719 190.025C53.9933 189.339 52.654 187.796 52.654 185.396C52.654 184.604 52.8362 183.854 53.2004 183.146C53.5647 182.439 54.1433 181.871 54.9362 181.443C55.7504 180.993 56.7897 180.768 58.054 180.768C59.4683 180.768 60.604 181.004 61.4612 181.475C62.3183 181.946 62.9183 182.557 63.2612 183.307C63.604 184.057 63.7112 184.871 63.5826 185.75L61.0754 186.2C61.3326 184.807 61.1826 183.725 60.6254 182.954C60.0897 182.182 59.2004 181.796 57.9576 181.796C56.9933 181.796 56.2219 182.043 55.6433 182.536C55.0647 183.007 54.7754 183.704 54.7754 184.625C54.7754 185.311 54.9897 185.921 55.4183 186.457C55.8469 186.971 56.5647 187.357 57.5719 187.614L59.5969 188.096C61.0112 188.439 62.104 188.986 62.8754 189.736C63.6683 190.486 64.0647 191.471 64.0647 192.693C64.0647 194.064 63.5612 195.179 62.554 196.036C61.5683 196.893 60.154 197.321 58.3112 197.321C57.4326 197.321 56.5754 197.193 55.7397 196.936C54.9254 196.657 54.2076 196.229 53.5862 195.65C52.9862 195.05 52.5469 194.279 52.2683 193.336L54.0683 192.693C54.304 194.043 54.8183 194.986 55.6112 195.521C56.404 196.057 57.3147 196.325 58.3433 196.325C58.9433 196.325 59.5112 196.229 60.0469 196.036C60.604 195.843 61.054 195.543 61.3969 195.136C61.7397 194.707 61.9112 194.161 61.9112 193.496C61.9112 192.811 61.6754 192.221 61.204 191.729C60.7326 191.236 59.8754 190.829 58.6326 190.507ZM88.036 183.5L84.436 197H82.3467L78.136 183.725L73.9253 197H71.9324L68.3646 183.5C68.2146 182.879 68.086 182.504 67.9789 182.375C67.8932 182.246 67.6789 182.161 67.336 182.118L65.6967 181.957V181.089H72.9932V181.957L71.3217 182.118C70.9789 182.161 70.786 182.246 70.7432 182.375C70.7217 182.504 70.7967 182.879 70.9682 183.5L73.7324 194.107L77.8146 181.089H79.9039L84.0503 194.3L86.8467 183.5C87.0182 182.879 87.0824 182.504 87.0396 182.375C87.0182 182.246 86.836 182.161 86.4932 182.118L84.8217 181.957V181.089H90.7039V181.957L89.0646 182.118C88.7432 182.161 88.5289 182.246 88.4217 182.375C88.336 182.504 88.2074 182.879 88.036 183.5ZM106.156 188.707V189.35C106.156 191.771 105.545 193.711 104.323 195.168C103.123 196.604 101.409 197.321 99.1805 197.321C96.9734 197.321 95.2591 196.604 94.0377 195.168C92.8377 193.711 92.2377 191.771 92.2377 189.35V188.707C92.2377 186.307 92.8377 184.389 94.0377 182.954C95.2377 181.496 96.952 180.768 99.1805 180.768C101.409 180.768 103.123 181.496 104.323 182.954C105.545 184.389 106.156 186.307 106.156 188.707ZM103.263 188.064C103.263 185.836 102.909 184.239 102.202 183.275C101.516 182.289 100.509 181.796 99.1805 181.796C97.8734 181.796 96.8663 182.289 96.1591 183.275C95.4734 184.239 95.1305 185.836 95.1305 188.064V189.993C95.1305 192.243 95.4734 193.861 96.1591 194.846C96.8663 195.811 97.8734 196.293 99.1805 196.293C100.509 196.293 101.516 195.811 102.202 194.846C102.909 193.861 103.263 192.243 103.263 189.993V188.064ZM109.262 181.957V181.089H114.212V183.661C114.962 182.654 115.712 181.925 116.462 181.475C117.233 181.004 118.015 180.768 118.808 180.768C119.494 180.768 120.137 180.971 120.737 181.379C121.337 181.786 121.84 182.439 122.248 183.339L120.158 184.593C119.837 183.821 119.473 183.286 119.065 182.986C118.658 182.686 118.208 182.536 117.715 182.536C117.18 182.536 116.644 182.707 116.108 183.05C115.594 183.393 115.015 184.036 114.373 184.979V194.396C114.373 195.146 114.405 195.596 114.469 195.746C114.533 195.875 114.737 195.95 115.08 195.971L117.49 196.164V197H109.262V196.164L111.03 195.971C111.373 195.929 111.576 195.843 111.64 195.714C111.705 195.586 111.737 195.146 111.737 194.396V183.693C111.737 182.943 111.705 182.504 111.64 182.375C111.576 182.246 111.373 182.161 111.03 182.118L109.262 181.957ZM139.754 196.196V197H134.804V194.461C134.14 195.446 133.4 196.175 132.586 196.646C131.793 197.096 130.904 197.321 129.918 197.321C128.075 197.321 126.64 196.636 125.611 195.264C124.604 193.871 124.1 191.911 124.1 189.382V188.739C124.1 186.318 124.69 184.389 125.868 182.954C127.068 181.496 128.707 180.768 130.786 180.768C132.307 180.768 133.593 181.239 134.643 182.182V175.818C134.643 175.068 134.611 174.629 134.547 174.5C134.482 174.371 134.279 174.286 133.936 174.243L132.168 174.082V173.214H137.279V194.396C137.279 195.146 137.311 195.586 137.375 195.714C137.44 195.843 137.643 195.929 137.986 195.971L139.754 196.196ZM126.993 190.346C126.993 192.361 127.282 193.839 127.861 194.782C128.461 195.725 129.286 196.196 130.336 196.196C131.022 196.196 131.729 195.982 132.457 195.554C133.186 195.125 133.915 194.257 134.643 192.95V183.757C133.7 182.493 132.468 181.861 130.947 181.861C129.575 181.861 128.568 182.386 127.925 183.436C127.304 184.486 126.993 185.932 126.993 187.775V190.346Z" fill="white"/>
<path d="M73.8179 67.0107V66.1429H79.9571V67.0107L78.1893 67.1714C77.8464 67.2143 77.6429 67.3107 77.5786 67.4607C77.5143 67.5893 77.4821 68.0179 77.4821 68.7464V88H75.9071L64.2071 68.2643V85.3964C64.2071 86.125 64.2393 86.5643 64.3036 86.7143C64.3679 86.8429 64.5714 86.9286 64.9143 86.9714L66.6821 87.1643V88H60.5429V87.1643L62.3107 86.9714C62.6536 86.9286 62.8571 86.8429 62.9214 86.7143C62.9857 86.5643 63.0179 86.125 63.0179 85.3964V68.7464C63.0179 68.0179 62.9857 67.5893 62.9214 67.4607C62.8571 67.3107 62.6536 67.2143 62.3107 67.1714L60.5429 67.0107V66.1429H66.1036L76.2929 83.3714V68.7464C76.2929 68.0179 76.2607 67.5893 76.1964 67.4607C76.1321 67.3107 75.9286 67.2143 75.5857 67.1714L73.8179 67.0107ZM94.9952 88.225C93.3238 88.225 92.3381 87.4536 92.0381 85.9107C91.2881 86.7679 90.4631 87.3893 89.5631 87.775C88.6631 88.1393 87.7738 88.3214 86.8952 88.3214C85.3952 88.3214 84.2917 87.9036 83.5845 87.0679C82.8774 86.2321 82.5238 85.225 82.5238 84.0464C82.5238 82.7821 82.9524 81.7857 83.8095 81.0571C84.6881 80.3071 86.1988 79.9321 88.3417 79.9321H91.9738V77.3286C91.9738 75.6143 91.6738 74.4357 91.0738 73.7929C90.4952 73.1286 89.7024 72.7964 88.6952 72.7964C88.0524 72.7964 87.4738 72.925 86.9595 73.1821C86.4452 73.4393 86.0702 73.9107 85.8345 74.5964C85.6202 75.2607 85.5988 76.2357 85.7702 77.5214L83.2309 77.1357C83.1238 76.1286 83.2524 75.2286 83.6167 74.4357C84.0024 73.6214 84.6238 72.9786 85.4809 72.5071C86.3595 72.0143 87.4524 71.7679 88.7595 71.7679C90.3238 71.7679 91.5238 72.0357 92.3595 72.5714C93.1952 73.0857 93.7738 73.7607 94.0952 74.5964C94.4381 75.4321 94.6095 76.3429 94.6095 77.3286V84.5607C94.6095 85.6536 94.7274 86.3393 94.9631 86.6179C95.2202 86.8964 95.4988 87.0357 95.7988 87.0357C95.9917 87.0357 96.1952 86.9929 96.4095 86.9071C96.6238 86.8 96.8595 86.6393 97.1167 86.425L97.6952 87.2286C97.3738 87.5071 96.9881 87.7429 96.5381 87.9357C96.1095 88.1286 95.5952 88.225 94.9952 88.225ZM87.7952 86.9714C88.3952 86.9714 89.0381 86.8107 89.7238 86.4893C90.4309 86.1464 91.1809 85.4714 91.9738 84.4643V80.9607H88.6952C87.4952 80.9607 86.6167 81.2071 86.0595 81.7C85.5238 82.1714 85.2559 82.9107 85.2559 83.9179C85.2559 84.8821 85.4595 85.6321 85.8667 86.1679C86.2952 86.7036 86.9381 86.9714 87.7952 86.9714ZM116.757 87.1643V88H109.171V87.1643L110.939 86.9714C111.282 86.9286 111.486 86.8429 111.55 86.7143C111.614 86.5857 111.646 86.1464 111.646 85.3964V77.3929C111.646 75.8071 111.4 74.6929 110.907 74.05C110.436 73.3857 109.739 73.0536 108.818 73.0536C108.154 73.0536 107.404 73.2679 106.568 73.6964C105.754 74.125 104.971 74.95 104.221 76.1714V85.3964C104.221 86.1464 104.254 86.5857 104.318 86.7143C104.382 86.8429 104.586 86.9286 104.929 86.9714L106.696 87.1643V88H99.1108V87.1643L100.879 86.9714C101.221 86.9286 101.425 86.8429 101.489 86.7143C101.554 86.5857 101.586 86.1464 101.586 85.3964V74.6929C101.586 73.9429 101.554 73.5036 101.489 73.375C101.425 73.2464 101.221 73.1607 100.879 73.1179L99.1108 72.9571V72.0893H104.061V74.6929C104.811 73.6857 105.657 72.9464 106.6 72.475C107.564 72.0036 108.518 71.7679 109.461 71.7679C111.775 71.7679 113.264 72.8286 113.929 74.95C114.721 73.8357 115.6 73.0321 116.564 72.5393C117.55 72.025 118.536 71.7679 119.521 71.7679C121.043 71.7679 122.221 72.2607 123.057 73.2464C123.914 74.2107 124.343 75.5821 124.343 77.3607V85.3964C124.343 86.1464 124.375 86.5857 124.439 86.7143C124.504 86.8429 124.707 86.9286 125.05 86.9714L126.818 87.1643V88H119.232V87.1643L121 86.9714C121.343 86.9286 121.546 86.8429 121.611 86.7143C121.675 86.5857 121.707 86.1464 121.707 85.3964V77.3929C121.707 75.8071 121.461 74.6929 120.968 74.05C120.496 73.3857 119.8 73.0536 118.879 73.0536C118.214 73.0536 117.454 73.2786 116.596 73.7286C115.761 74.1571 114.968 75.0036 114.218 76.2679C114.239 76.4393 114.25 76.6214 114.25 76.8143C114.271 76.9857 114.282 77.1679 114.282 77.3607V85.3964C114.282 86.1464 114.314 86.5857 114.379 86.7143C114.443 86.8429 114.646 86.9286 114.989 86.9714L116.757 87.1643ZM142.373 84.3357C141.987 85.7929 141.258 86.8214 140.187 87.4214C139.137 88.0214 137.969 88.3214 136.683 88.3214C134.305 88.3214 132.526 87.6036 131.348 86.1679C130.169 84.7107 129.58 82.7714 129.58 80.35V79.7071C129.58 77.3071 130.148 75.3893 131.283 73.9536C132.419 72.4964 134.069 71.7679 136.233 71.7679C137.39 71.7679 138.44 72.0036 139.383 72.475C140.348 72.9464 141.108 73.6429 141.665 74.5643C142.244 75.4857 142.533 76.6321 142.533 78.0036C142.533 78.6464 142.469 79.3214 142.34 80.0286H132.473V80.9929C132.473 83.2429 132.815 84.8607 133.501 85.8464C134.208 86.8107 135.344 87.2929 136.908 87.2929C137.894 87.2929 138.708 87.0357 139.351 86.5214C140.015 86.0071 140.455 85.1179 140.669 83.8536L142.373 84.3357ZM136.233 72.7964C134.969 72.7964 134.026 73.2786 133.405 74.2429C132.783 75.2071 132.473 76.7929 132.473 79H139.705V78.9036C139.748 78.625 139.78 78.3571 139.801 78.1C139.823 77.8214 139.833 77.575 139.833 77.3607C139.833 75.7536 139.501 74.5964 138.837 73.8893C138.173 73.1607 137.305 72.7964 136.233 72.7964Z" fill="white"/>
</svg>
