<svg width="123" height="43" viewBox="0 0 123 43" fill="none" xmlns="http://www.w3.org/2000/svg">
<rect width="122.857" height="43" rx="10.9694" fill="#DEDEDE"/>
<path d="M43.7451 27.0097V29H34.6046V12.2914H36.7423V27.0097H43.7451ZM55.984 22.1691V23.6434C55.984 25.3798 55.5335 26.7476 54.6326 27.7469C53.748 28.7461 52.4785 29.2457 50.824 29.2457C49.1859 29.2457 47.9164 28.7461 47.0154 27.7469C46.1145 26.7476 45.664 25.3798 45.664 23.6434V22.1691C45.664 20.4655 46.1063 19.1141 46.9909 18.1149C47.8918 17.0992 49.1695 16.5914 50.824 16.5914C52.4785 16.5914 53.748 17.0992 54.6326 18.1149C55.5335 19.1141 55.984 20.4655 55.984 22.1691ZM53.8954 22.1691C53.8954 21.0061 53.6334 20.097 53.1092 19.4417C52.585 18.7701 51.8233 18.4343 50.824 18.4343C49.8412 18.4343 49.0794 18.7701 48.5389 19.4417C48.0147 20.097 47.7526 21.0061 47.7526 22.1691V23.6434C47.7526 24.8556 48.0147 25.7893 48.5389 26.4446C49.0794 27.0998 49.8412 27.4274 50.824 27.4274C51.8233 27.4274 52.585 27.0998 53.1092 26.4446C53.6334 25.7893 53.8954 24.8556 53.8954 23.6434V22.1691ZM69.3758 30.5234C69.3758 31.7192 68.8844 32.6775 67.9015 33.3983C66.9351 34.119 65.6 34.4794 63.8964 34.4794C63.0446 34.4794 62.1518 34.3648 61.2181 34.1354C60.3008 33.9061 59.4326 33.5375 58.6135 33.0297L59.3015 31.4571C60.1206 31.9158 60.9069 32.2352 61.6604 32.4154C62.4303 32.612 63.1756 32.7103 63.8964 32.7103C65.0103 32.7103 65.8703 32.5301 66.4764 32.1697C67.0825 31.8093 67.3855 31.3261 67.3855 30.72C67.3855 30.2777 67.2381 29.9337 66.9433 29.688C66.6484 29.4587 66.1734 29.344 65.5181 29.344H62.6924C61.6276 29.344 60.8577 29.0901 60.3827 28.5823C59.9076 28.0745 59.6701 27.5175 59.6701 26.9114C59.6701 26.4855 59.7684 26.0678 59.965 25.6583C60.1615 25.2324 60.44 24.8147 60.8004 24.4051C60.2271 24.0611 59.7684 23.5943 59.4244 23.0046C59.0804 22.3985 58.9084 21.6695 58.9084 20.8177C58.9084 19.884 59.105 19.1059 59.4981 18.4834C59.9076 17.861 60.4482 17.3941 61.1198 17.0829C61.7914 16.7552 62.545 16.5914 63.3804 16.5914H63.7981C64.3714 16.5914 64.8956 16.6733 65.3707 16.8371H69.7444V18.6309L67.0907 18.2623C67.4347 18.5571 67.7132 18.9257 67.9261 19.368C68.1391 19.7939 68.2455 20.3181 68.2455 20.9406C68.2455 21.8251 68.0408 22.5705 67.6313 23.1766C67.2381 23.7827 66.7057 24.2495 66.0341 24.5771C65.3625 24.8884 64.6172 25.044 63.7981 25.044H63.3804C63.1674 25.044 62.9627 25.0358 62.7661 25.0194C62.5695 24.9867 62.373 24.9539 62.1764 24.9211C61.7014 25.4453 61.4638 25.9613 61.4638 26.4691C61.4638 27.1244 61.9225 27.452 62.8398 27.452H65.5918C66.7713 27.452 67.6968 27.7141 68.3684 28.2383C69.04 28.7625 69.3758 29.5242 69.3758 30.5234ZM63.7981 23.2994C64.437 23.2994 65.0021 23.0947 65.4935 22.6851C65.985 22.2756 66.2307 21.6531 66.2307 20.8177C66.2307 19.9987 65.985 19.3844 65.4935 18.9749C65.0021 18.549 64.437 18.336 63.7981 18.336H63.3804C62.7252 18.336 62.1518 18.549 61.6604 18.9749C61.169 19.3844 60.9233 19.9987 60.9233 20.8177C60.9233 21.6531 61.169 22.2756 61.6604 22.6851C62.1518 23.0947 62.7252 23.2994 63.3804 23.2994H63.7981ZM74.5489 13.864H72.2883V11.6034H74.5489V13.864ZM74.426 29H72.4112V16.8371H74.426V29ZM84.618 18.4834C84.1593 18.4834 83.6187 18.5981 82.9963 18.8274C82.3902 19.0568 81.653 19.5236 80.7848 20.228V29H78.77V16.8371H80.6866V18.5326C81.5547 17.7954 82.341 17.2876 83.0454 17.0091C83.7662 16.7307 84.4542 16.5914 85.1094 16.5914C86.2397 16.5914 87.0997 16.9518 87.6894 17.6726C88.2955 18.377 88.5986 19.3844 88.5986 20.6949V29H86.5837V20.9897C86.5837 19.3189 85.9285 18.4834 84.618 18.4834Z" fill="#151515"/>
</svg>
